<?xml version="1.0" encoding="iso-8859-1"?>
<!-- Uploaded to: SVG Repo, www.svgrepo.com, Generator: SVG Repo Mixer Tools -->
<svg height="800px" width="800px" version="1.1" id="Layer_1" xmlns="http://www.w3.org/2000/svg" xmlns:xlink="http://www.w3.org/1999/xlink" 
	 viewBox="0 0 275.509 275.509" xml:space="preserve">
<g>
	<g>
		<polygon style="fill:#4EFFBB;" points="142.168,149.059 154.918,170.768 145.638,186.545 120.139,186.545 		"/>
		<polygon style="fill:#4EFFBB;" points="200.618,121.668 238.72,186.545 162.517,186.545 		"/>
		<path style="fill:#4EFFBB;" d="M275.509,32.614v224.45c0,3.978-3.289,7.2-7.307,7.2H19.792c-4.054,0-7.307-3.222-7.307-7.2V32.614
			c0-3.944,3.25-7.163,7.307-7.163h248.411C272.22,25.448,275.509,28.67,275.509,32.614z M260.896,249.898v-44.905H98.005
			c-4.054,0-7.307-3.222-7.307-7.163c0-3.981,3.253-7.2,7.307-7.2h7.526l32.583-55.434c1.316-2.243,3.725-3.618,6.32-3.618
			c2.631,0,5.041,1.375,6.32,3.618l14.869,25.293l30.941-52.684c1.316-2.243,3.725-3.582,6.32-3.582c2.631,0,5.041,1.338,6.32,3.582
			l48.658,82.824h3.033V39.814H27.098V190.63h11.287c4.017,0,7.307,3.222,7.307,7.2c0,3.944-3.286,7.163-7.307,7.163H27.098v44.905
			H260.896z M240.986,190.63l-38.102-64.88l-38.102,64.88H240.986z M157.184,174.853l-12.749-21.709l-22.029,37.486h25.499
			L157.184,174.853z"/>
		<path style="fill:#4EFFBB;" d="M68.082,186.545c4.017,0,7.307,3.222,7.307,7.2c0,3.944-3.289,7.163-7.307,7.163h-4.31
			c-4.054,0-7.307-3.222-7.307-7.163c0-3.981,3.25-7.2,7.307-7.2H68.082z"/>
		<path style="fill:#4EFFBB;" d="M69.397,44.959c14.833,0,26.924,11.869,26.924,26.485c0,14.582-12.091,26.485-26.924,26.485
			c-14.869,0-26.961-11.903-26.961-26.485C42.44,56.828,54.531,44.959,69.397,44.959z M81.711,71.444
			c0-6.694-5.516-12.122-12.311-12.122s-12.347,5.429-12.347,12.122c0,6.657,5.552,12.122,12.347,12.122
			S81.711,78.104,81.711,71.444z"/>
		<g>
			<g id="XMLID_18_">
				<g>
					<polygon style="fill:#302C58;" points="131.949,138.938 144.699,160.65 135.421,176.424 109.923,176.424 					"/>
					<polygon style="fill:#302C58;" points="190.399,111.548 228.501,176.424 152.298,176.424 					"/>
					<path style="fill:#222051;" d="M193.169,25.611h19.263c4.003,0,7.253-3.216,7.253-7.183l0,0c0-3.967-3.247-7.183-7.253-7.183
						h-19.263c-4.003,0-7.25,3.216-7.25,7.183l0,0C185.918,22.395,189.162,25.611,193.169,25.611z"/>
					<path style="fill:#222051;" d="M255.718,11.245h-15.732c-4.006,0-7.25,3.216-7.25,7.183l0,0c0,3.967,3.247,7.183,7.25,7.183
						h8.426v150.816h-3.031L196.719,93.6c-1.279-2.243-3.691-3.582-6.32-3.582c-2.595,0-5.004,1.338-6.32,3.582l-30.941,52.684
						l-14.869-25.293c-1.279-2.243-3.688-3.618-6.32-3.618c-2.595,0-5.004,1.375-6.32,3.618l-32.586,55.434H85.52
						c-4.054,0-7.307,3.222-7.307,7.2c0,3.944,3.253,7.163,7.307,7.163h162.893v44.905h-233.8V190.79h10.956
						c3.621,0,6.978-2.454,7.543-5.997c0.72-4.498-2.809-8.369-7.214-8.369H14.613V25.611h151.002c4.006,0,7.25-3.216,7.25-7.183
						l0,0c0-3.967-3.247-7.183-7.25-7.183H7.307C3.25,11.245,0,14.464,0,18.409v224.45c0,3.981,3.25,7.2,7.307,7.2h248.411
						c4.017,0,7.307-3.255,7.307-7.236V18.409C263.024,14.464,259.735,11.245,255.718,11.245z M135.421,176.424h-25.499
						l22.029-37.486l12.749,21.709L135.421,176.424z M152.298,176.424l38.102-64.877l38.102,64.877H152.298z"/>
					<path style="fill:#222051;" d="M62.102,37.731c14.833,0,26.924,11.869,26.924,26.485c0,14.582-12.091,26.485-26.924,26.485
						c-14.869,0-26.961-11.903-26.961-26.485C35.141,49.6,47.236,37.731,62.102,37.731z M74.413,64.219
						c0-6.694-5.516-12.122-12.311-12.122s-12.347,5.429-12.347,12.122c0,6.657,5.552,12.122,12.347,12.122
						S74.413,70.876,74.413,64.219z"/>
					<path style="fill:#222051;" d="M57.865,176.424c4.017,0,7.307,3.222,7.307,7.2c0,3.944-3.286,7.163-7.307,7.163h-4.31
						c-4.054,0-7.307-3.222-7.307-7.163c0-3.981,3.25-7.2,7.307-7.2H57.865z"/>
				</g>
			</g>
		</g>
	</g>
</g>
</svg>