<?xml version="1.0" encoding="iso-8859-1"?>
<!-- Uploaded to: SVG Repo, www.svgrepo.com, Generator: SVG Repo Mixer Tools -->
<!DOCTYPE svg PUBLIC "-//W3C//DTD SVG 1.1//EN" "http://www.w3.org/Graphics/SVG/1.1/DTD/svg11.dtd">
<svg fill="#000000" height="800px" width="800px" version="1.1" id="Capa_1" xmlns="http://www.w3.org/2000/svg" xmlns:xlink="http://www.w3.org/1999/xlink" 
	 viewBox="0 0 478.183 478.183" xml:space="preserve">
<g>
	<polygon points="208.134,142.139 279.206,25.141 236.492,32.178 165.419,149.176 	"/>
	<path d="M443.489,3.827c-3.598-3.063-8.357-4.382-13.021-3.612L321.032,18.246L249.96,135.244l185.738-30.611
		c7.766-1.272,13.468-7.996,13.468-15.863v-72.69C449.167,11.367,447.094,6.875,443.489,3.827z"/>
	<path d="M37.458,166.422l68.489-112.727L42.484,64.156c-7.768,1.272-13.468,7.995-13.468,15.863c0,0,0,54.519,0,72.691
		C29.016,157.422,30.811,163.799,37.458,166.422z"/>
	<polygon points="123.592,156.072 194.666,39.072 147.772,46.801 76.692,163.799 	"/>
	<path d="M433.083,205.609H45.099c-8.883,0-16.083,7.194-16.083,16.084V462.1c0,8.889,7.2,16.083,16.083,16.083h387.984
		c8.88,0,16.083-7.194,16.083-16.083V221.693C449.167,212.804,441.964,205.609,433.083,205.609z M376.673,383.991
		c0,19.617-15.903,35.526-35.52,35.526H137.045c-19.626,0-35.528-15.909-35.528-35.526v-84.189
		c0-19.617,15.902-35.528,35.528-35.528h204.107c19.617,0,35.52,15.911,35.52,35.528V383.991z"/>
	<path d="M331.218,360.242h-79.295c-8.881,0-16.083,7.193-16.083,16.083c0,8.89,7.202,16.084,16.083,16.084h79.295
		c8.883,0,16.083-7.194,16.083-16.084C347.301,367.436,340.101,360.242,331.218,360.242z"/>
	<path d="M286.988,311.991c0-8.89-7.201-16.083-16.084-16.083H136.88c-8.881,0-16.083,7.193-16.083,16.083
		c0,8.89,7.203,16.083,16.083,16.083h134.025C279.788,328.074,286.988,320.881,286.988,311.991z"/>
</g>
</svg>